<svg xmlns="http://www.w3.org/2000/svg" width="1203.466" height="1273.544" viewBox="0 0 1203.466 1273.544">
  <g id="t1-ic3" transform="translate(-380 -641.456)">
    <g id="t1-ic3-2" data-name="t1-ic3" transform="translate(1618.243 658.737)">
      <g id="Group_96601" data-name="Group 96601" transform="translate(-1213.718 1056.263)">
        <g id="Group_96520" data-name="Group 96520" transform="translate(124.112 22.327)">
          <circle id="Ellipse_4355" data-name="Ellipse 4355" cx="12.216" cy="12.216" r="12.216" fill="#ffca28"/>
        </g>
        <g id="Group_96522" data-name="Group 96522" transform="translate(49.44 73.162)">
          <g id="Group_96521" data-name="Group 96521">
            <rect id="Rectangle_8545" data-name="Rectangle 8545" width="71.992" height="24.548" rx="4.919" fill="#cecece"/>
          </g>
        </g>
        <g id="Group_96524" data-name="Group 96524" transform="translate(49.44 97.71)">
          <g id="Group_96523" data-name="Group 96523">
            <rect id="Rectangle_8546" data-name="Rectangle 8546" width="71.992" height="24.548" rx="4.919" fill="#cecece"/>
          </g>
        </g>
        <g id="Group_96526" data-name="Group 96526" transform="translate(49.44 48.613)">
          <g id="Group_96525" data-name="Group 96525">
            <rect id="Rectangle_8547" data-name="Rectangle 8547" width="71.992" height="24.548" rx="4.919" fill="#cecece"/>
          </g>
        </g>
        <g id="Group_96528" data-name="Group 96528" transform="translate(109.024 48.613)">
          <g id="Group_96527" data-name="Group 96527">
            <path id="Path_142341" data-name="Path 142341" d="M-1071.386,1114.709h-8.318a4.092,4.092,0,0,1,4.091,4.092v16.365a4.092,4.092,0,0,1-4.091,4.091h8.318a4.091,4.091,0,0,0,4.091-4.091V1118.8A4.092,4.092,0,0,0-1071.386,1114.709Z" transform="translate(1079.704 -1114.709)" fill="#e2e2e2"/>
          </g>
        </g>
        <g id="Group_96530" data-name="Group 96530" transform="translate(49.441 48.613)">
          <g id="Group_96529" data-name="Group 96529">
            <path id="Path_142342" data-name="Path 142342" d="M-1147.249,1114.709h8.318a4.092,4.092,0,0,0-4.091,4.092v16.365a4.091,4.091,0,0,0,4.091,4.091h-8.318a4.091,4.091,0,0,1-4.091-4.091V1118.8A4.092,4.092,0,0,1-1147.249,1114.709Z" transform="translate(1151.339 -1114.709)" fill="#9e9e9e"/>
          </g>
        </g>
        <g id="Group_96532" data-name="Group 96532" transform="translate(49.441 73.162)">
          <g id="Group_96531" data-name="Group 96531">
            <path id="Path_142343" data-name="Path 142343" d="M-1147.249,1144.223h8.318a4.091,4.091,0,0,0-4.091,4.091v16.366a4.091,4.091,0,0,0,4.091,4.091h-8.318a4.091,4.091,0,0,1-4.091-4.091v-16.366A4.091,4.091,0,0,1-1147.249,1144.223Z" transform="translate(1151.339 -1144.223)" fill="#9e9e9e"/>
          </g>
        </g>
        <g id="Group_96534" data-name="Group 96534" transform="translate(49.441 97.71)">
          <g id="Group_96533" data-name="Group 96533">
            <path id="Path_142344" data-name="Path 142344" d="M-1147.249,1173.737h8.318a4.091,4.091,0,0,0-4.091,4.092v16.366a4.091,4.091,0,0,0,4.091,4.091h-8.318a4.091,4.091,0,0,1-4.091-4.091v-16.366A4.091,4.091,0,0,1-1147.249,1173.737Z" transform="translate(1151.339 -1173.737)" fill="#9e9e9e"/>
          </g>
        </g>
        <g id="Group_96536" data-name="Group 96536" transform="translate(109.024 73.162)">
          <g id="Group_96535" data-name="Group 96535">
            <path id="Path_142345" data-name="Path 142345" d="M-1071.386,1144.223h-8.318a4.092,4.092,0,0,1,4.091,4.091v16.366a4.092,4.092,0,0,1-4.091,4.091h8.318a4.091,4.091,0,0,0,4.091-4.091v-16.366A4.091,4.091,0,0,0-1071.386,1144.223Z" transform="translate(1079.704 -1144.223)" fill="#e2e2e2"/>
          </g>
        </g>
        <g id="Group_96538" data-name="Group 96538" transform="translate(109.024 97.71)">
          <g id="Group_96537" data-name="Group 96537">
            <path id="Path_142346" data-name="Path 142346" d="M-1071.386,1173.737h-8.318a4.092,4.092,0,0,1,4.091,4.092v16.366a4.092,4.092,0,0,1-4.091,4.091h8.318a4.091,4.091,0,0,0,4.091-4.091v-16.366A4.091,4.091,0,0,0-1071.386,1173.737Z" transform="translate(1079.704 -1173.737)" fill="#e2e2e2"/>
          </g>
        </g>
        <g id="Group_96540" data-name="Group 96540" transform="translate(48.193 47.366)">
          <g id="Group_96539" data-name="Group 96539">
            <path id="Path_142347" data-name="Path 142347" d="M-1083.691,1140.253H-1147.5a5.345,5.345,0,0,1-5.339-5.338v-16.366a5.345,5.345,0,0,1,5.339-5.339h63.809a5.345,5.345,0,0,1,5.338,5.339v16.366A5.344,5.344,0,0,1-1083.691,1140.253ZM-1147.5,1115.7a2.847,2.847,0,0,0-2.844,2.844v16.366a2.846,2.846,0,0,0,2.844,2.843h63.809a2.846,2.846,0,0,0,2.843-2.843v-16.366a2.846,2.846,0,0,0-2.843-2.844Z" transform="translate(1152.839 -1113.209)" fill="#12263f"/>
          </g>
        </g>
        <g id="Group_96542" data-name="Group 96542" transform="translate(48.193 71.914)">
          <g id="Group_96541" data-name="Group 96541">
            <path id="Path_142348" data-name="Path 142348" d="M-1083.691,1169.767H-1147.5a5.345,5.345,0,0,1-5.339-5.339v-16.366a5.345,5.345,0,0,1,5.339-5.339h63.809a5.345,5.345,0,0,1,5.338,5.339v16.366A5.345,5.345,0,0,1-1083.691,1169.767Zm-63.809-24.548a2.847,2.847,0,0,0-2.844,2.844v16.366a2.847,2.847,0,0,0,2.844,2.844h63.809a2.846,2.846,0,0,0,2.843-2.844v-16.366a2.846,2.846,0,0,0-2.843-2.844Z" transform="translate(1152.839 -1142.723)" fill="#12263f"/>
          </g>
        </g>
        <g id="Group_96544" data-name="Group 96544" transform="translate(48.193 96.463)">
          <g id="Group_96543" data-name="Group 96543">
            <path id="Path_142349" data-name="Path 142349" d="M-1083.691,1199.281H-1147.5a5.345,5.345,0,0,1-5.339-5.339v-16.367a5.344,5.344,0,0,1,5.339-5.338h63.809a5.344,5.344,0,0,1,5.338,5.338v16.367A5.345,5.345,0,0,1-1083.691,1199.281Zm-63.809-24.548a2.846,2.846,0,0,0-2.844,2.843v16.367a2.847,2.847,0,0,0,2.844,2.844h63.809a2.846,2.846,0,0,0,2.843-2.844v-16.367a2.846,2.846,0,0,0-2.843-2.843Z" transform="translate(1152.839 -1172.237)" fill="#12263f"/>
          </g>
        </g>
        <g id="Group_96545" data-name="Group 96545" transform="translate(56.884 58.244)">
          <rect id="Rectangle_8548" data-name="Rectangle 8548" width="38.183" height="5.287" rx="2.415" fill="#ffca28"/>
        </g>
        <g id="Group_96546" data-name="Group 96546" transform="translate(56.884 82.793)">
          <rect id="Rectangle_8549" data-name="Rectangle 8549" width="38.183" height="5.287" rx="2.415" fill="#ffca28"/>
        </g>
        <g id="Group_96547" data-name="Group 96547" transform="translate(56.884 107.341)">
          <rect id="Rectangle_8550" data-name="Rectangle 8550" width="38.183" height="5.287" rx="2.415" fill="#ffca28"/>
        </g>
        <g id="Group_96548" data-name="Group 96548" transform="translate(55.636 56.996)">
          <path id="Path_142350" data-name="Path 142350" d="M-1106.469,1132.571h-34.165a3.261,3.261,0,0,1-3.257-3.257v-1.269a3.261,3.261,0,0,1,3.257-3.256h34.165a3.26,3.26,0,0,1,3.256,3.256v1.269A3.26,3.26,0,0,1-1106.469,1132.571Zm-34.165-5.287a.771.771,0,0,0-.761.761v1.269a.772.772,0,0,0,.761.762h34.165a.772.772,0,0,0,.761-.762v-1.269a.771.771,0,0,0-.761-.761Z" transform="translate(1143.891 -1124.788)" fill="#12263f"/>
        </g>
        <g id="Group_96549" data-name="Group 96549" transform="translate(55.636 81.545)">
          <path id="Path_142351" data-name="Path 142351" d="M-1106.469,1162.084h-34.165a3.26,3.26,0,0,1-3.257-3.256v-1.269a3.261,3.261,0,0,1,3.257-3.256h34.165a3.26,3.26,0,0,1,3.256,3.256v1.269A3.26,3.26,0,0,1-1106.469,1162.084Zm-34.165-5.287a.771.771,0,0,0-.761.761v1.269a.771.771,0,0,0,.761.761h34.165a.771.771,0,0,0,.761-.761v-1.269a.771.771,0,0,0-.761-.761Z" transform="translate(1143.891 -1154.302)" fill="#12263f"/>
        </g>
        <g id="Group_96550" data-name="Group 96550" transform="translate(55.636 106.093)">
          <path id="Path_142352" data-name="Path 142352" d="M-1106.469,1191.6h-34.165a3.261,3.261,0,0,1-3.257-3.256v-1.27a3.261,3.261,0,0,1,3.257-3.256h34.165a3.26,3.26,0,0,1,3.256,3.256v1.27A3.26,3.26,0,0,1-1106.469,1191.6Zm-34.165-5.288a.771.771,0,0,0-.761.761v1.27a.771.771,0,0,0,.761.761h34.165a.771.771,0,0,0,.761-.761v-1.27a.771.771,0,0,0-.761-.761Z" transform="translate(1143.891 -1183.815)" fill="#12263f"/>
        </g>
        <g id="Group_96551" data-name="Group 96551" transform="translate(106.325 58.244)">
          <rect id="Rectangle_8551" data-name="Rectangle 8551" width="5.287" height="5.287" rx="2.415" fill="#ffca28"/>
        </g>
        <g id="Group_96552" data-name="Group 96552" transform="translate(105.078 56.996)">
          <path id="Path_142353" data-name="Path 142353" d="M-1079.922,1132.571h-1.27a3.26,3.26,0,0,1-3.255-3.257v-1.269a3.259,3.259,0,0,1,3.255-3.256h1.27a3.26,3.26,0,0,1,3.256,3.256v1.269A3.26,3.26,0,0,1-1079.922,1132.571Zm-1.27-5.287a.771.771,0,0,0-.76.761v1.269a.771.771,0,0,0,.76.762h1.27a.772.772,0,0,0,.761-.762v-1.269a.771.771,0,0,0-.761-.761Z" transform="translate(1084.448 -1124.788)" fill="#12263f"/>
        </g>
        <g id="Group_96553" data-name="Group 96553" transform="translate(106.325 82.793)">
          <rect id="Rectangle_8552" data-name="Rectangle 8552" width="5.287" height="5.287" rx="2.415" fill="#ffca28"/>
        </g>
        <g id="Group_96554" data-name="Group 96554" transform="translate(105.078 81.545)">
          <path id="Path_142354" data-name="Path 142354" d="M-1079.922,1162.084h-1.27a3.259,3.259,0,0,1-3.255-3.256v-1.269a3.259,3.259,0,0,1,3.255-3.256h1.27a3.26,3.26,0,0,1,3.256,3.256v1.269A3.26,3.26,0,0,1-1079.922,1162.084Zm-1.27-5.287a.771.771,0,0,0-.76.761v1.269a.771.771,0,0,0,.76.761h1.27a.771.771,0,0,0,.761-.761v-1.269a.771.771,0,0,0-.761-.761Z" transform="translate(1084.448 -1154.302)" fill="#12263f"/>
        </g>
        <g id="Group_96555" data-name="Group 96555" transform="translate(106.325 107.341)">
          <rect id="Rectangle_8553" data-name="Rectangle 8553" width="5.287" height="5.287" rx="2.415" fill="#ffca28"/>
        </g>
        <g id="Group_96556" data-name="Group 96556" transform="translate(105.078 106.093)">
          <path id="Path_142355" data-name="Path 142355" d="M-1079.922,1191.6h-1.27a3.259,3.259,0,0,1-3.255-3.256v-1.27a3.259,3.259,0,0,1,3.255-3.256h1.27a3.26,3.26,0,0,1,3.256,3.256v1.27A3.26,3.26,0,0,1-1079.922,1191.6Zm-1.27-5.288a.771.771,0,0,0-.76.761v1.27a.771.771,0,0,0,.76.761h1.27a.771.771,0,0,0,.761-.761v-1.27a.771.771,0,0,0-.761-.761Z" transform="translate(1084.448 -1183.815)" fill="#12263f"/>
        </g>
        <g id="Group_96557" data-name="Group 96557" transform="translate(73.22 1.247)">
          <circle id="Ellipse_4356" data-name="Ellipse 4356" cx="12.216" cy="12.216" r="12.216" fill="#4dd0e1"/>
        </g>
        <g id="Group_96559" data-name="Group 96559" transform="translate(73.22 1.247)">
          <g id="Group_96558" data-name="Group 96558">
            <path id="Path_142356" data-name="Path 142356" d="M-1114.432,1069.979a12.211,12.211,0,0,1,8.058-11.475,12.158,12.158,0,0,0-4.159-.742,12.217,12.217,0,0,0-12.217,12.217,12.216,12.216,0,0,0,12.217,12.216,12.16,12.16,0,0,0,4.159-.741A12.211,12.211,0,0,1-1114.432,1069.979Z" transform="translate(1122.75 -1057.762)" fill="#039be5"/>
          </g>
        </g>
        <g id="Group_96560" data-name="Group 96560" transform="translate(73.22 145.192)">
          <circle id="Ellipse_4357" data-name="Ellipse 4357" cx="12.216" cy="12.216" r="12.216" fill="#4dd0e1"/>
        </g>
        <g id="Group_96562" data-name="Group 96562" transform="translate(73.22 145.192)">
          <g id="Group_96561" data-name="Group 96561">
            <path id="Path_142357" data-name="Path 142357" d="M-1114.432,1243.039a12.211,12.211,0,0,1,8.058-11.475,12.163,12.163,0,0,0-4.159-.741,12.216,12.216,0,0,0-12.217,12.216,12.217,12.217,0,0,0,12.217,12.217,12.169,12.169,0,0,0,4.159-.742A12.211,12.211,0,0,1-1114.432,1243.039Z" transform="translate(1122.75 -1230.823)" fill="#039be5"/>
          </g>
        </g>
        <g id="Group_96563" data-name="Group 96563" transform="translate(145.192 73.22)">
          <circle id="Ellipse_4358" data-name="Ellipse 4358" cx="12.216" cy="12.216" r="12.216" fill="#4dd0e1"/>
        </g>
        <g id="Group_96564" data-name="Group 96564" transform="translate(1.248 73.22)">
          <circle id="Ellipse_4359" data-name="Ellipse 4359" cx="12.216" cy="12.216" r="12.216" fill="#4dd0e1"/>
        </g>
        <g id="Group_96566" data-name="Group 96566" transform="translate(1.248 73.219)">
          <g id="Group_96565" data-name="Group 96565">
            <path id="Path_142358" data-name="Path 142358" d="M-1200.962,1156.509a12.211,12.211,0,0,1,8.058-11.475,12.162,12.162,0,0,0-4.159-.742,12.217,12.217,0,0,0-12.217,12.217,12.216,12.216,0,0,0,12.217,12.216,12.167,12.167,0,0,0,4.159-.741A12.211,12.211,0,0,1-1200.962,1156.509Z" transform="translate(1209.28 -1144.292)" fill="#039be5"/>
          </g>
        </g>
        <g id="Group_96568" data-name="Group 96568" transform="translate(153.25 73.219)">
          <g id="Group_96567" data-name="Group 96567">
            <path id="Path_142359" data-name="Path 142359" d="M-1018.475,1156.509a12.21,12.21,0,0,0-8.057-11.475,12.152,12.152,0,0,1,4.159-.742,12.217,12.217,0,0,1,12.216,12.217,12.216,12.216,0,0,1-12.216,12.216,12.158,12.158,0,0,1-4.159-.741A12.211,12.211,0,0,0-1018.475,1156.509Z" transform="translate(1026.532 -1144.292)" fill="#039be5"/>
          </g>
        </g>
        <g id="Group_96569" data-name="Group 96569" transform="translate(22.328 22.327)">
          <circle id="Ellipse_4360" data-name="Ellipse 4360" cx="12.216" cy="12.216" r="12.216" fill="#ffca28"/>
        </g>
        <g id="Group_96571" data-name="Group 96571" transform="translate(22.328 22.338)">
          <g id="Group_96570" data-name="Group 96570">
            <path id="Path_142360" data-name="Path 142360" d="M-1172.04,1086.687a12.147,12.147,0,0,1,4.48-2.836,12.207,12.207,0,0,0-12.8,2.836,12.217,12.217,0,0,0,0,17.277,12.207,12.207,0,0,0,12.8,2.836,12.15,12.15,0,0,1-4.48-2.836A12.217,12.217,0,0,1-1172.04,1086.687Z" transform="translate(1183.936 -1083.119)" fill="#ffa726"/>
          </g>
        </g>
        <g id="Group_96573" data-name="Group 96573" transform="translate(132.17 22.338)">
          <g id="Group_96572" data-name="Group 96572">
            <path id="Path_142361" data-name="Path 142361" d="M-1047.4,1086.687a12.14,12.14,0,0,0-4.479-2.836,12.206,12.206,0,0,1,12.8,2.836,12.217,12.217,0,0,1,0,17.277,12.206,12.206,0,0,1-12.8,2.836,12.143,12.143,0,0,0,4.479-2.836A12.217,12.217,0,0,0-1047.4,1086.687Z" transform="translate(1051.876 -1083.119)" fill="#ffa726"/>
          </g>
        </g>
        <g id="Group_96574" data-name="Group 96574" transform="translate(124.112 124.112)">
          <circle id="Ellipse_4361" data-name="Ellipse 4361" cx="12.216" cy="12.216" r="12.216" fill="#ffca28"/>
        </g>
        <g id="Group_96575" data-name="Group 96575" transform="translate(22.328 124.112)">
          <circle id="Ellipse_4362" data-name="Ellipse 4362" cx="12.216" cy="12.216" r="12.216" fill="#ffca28"/>
        </g>
        <g id="Group_96577" data-name="Group 96577" transform="translate(22.328 124.122)">
          <g id="Group_96576" data-name="Group 96576">
            <path id="Path_142362" data-name="Path 142362" d="M-1172.04,1209.058a12.149,12.149,0,0,1,4.48-2.836,12.207,12.207,0,0,0-12.8,2.836,12.217,12.217,0,0,0,0,17.278,12.207,12.207,0,0,0,12.8,2.836,12.153,12.153,0,0,1-4.48-2.836A12.217,12.217,0,0,1-1172.04,1209.058Z" transform="translate(1183.936 -1205.491)" fill="#ffa726"/>
          </g>
        </g>
        <g id="Group_96579" data-name="Group 96579" transform="translate(132.17 124.122)">
          <g id="Group_96578" data-name="Group 96578">
            <path id="Path_142363" data-name="Path 142363" d="M-1047.4,1209.058a12.143,12.143,0,0,0-4.479-2.836,12.206,12.206,0,0,1,12.8,2.836,12.217,12.217,0,0,1,0,17.278,12.206,12.206,0,0,1-12.8,2.836,12.146,12.146,0,0,0,4.479-2.836A12.217,12.217,0,0,0-1047.4,1209.058Z" transform="translate(1051.876 -1205.491)" fill="#ffa726"/>
          </g>
        </g>
        <g id="Group_96582" data-name="Group 96582" transform="translate(71.972)">
          <g id="Group_96580" data-name="Group 96580">
            <path id="Path_142364" data-name="Path 142364" d="M-1110.786,1083.191a13.48,13.48,0,0,1-13.464-13.464,13.479,13.479,0,0,1,13.464-13.464,13.479,13.479,0,0,1,13.465,13.464A13.48,13.48,0,0,1-1110.786,1083.191Zm0-24.433a10.981,10.981,0,0,0-10.968,10.968,10.981,10.981,0,0,0,10.968,10.969,10.982,10.982,0,0,0,10.969-10.969A10.981,10.981,0,0,0-1110.786,1058.758Z" transform="translate(1124.25 -1056.263)" fill="#12263f"/>
          </g>
          <g id="Group_96581" data-name="Group 96581" transform="translate(0 143.944)">
            <path id="Path_142365" data-name="Path 142365" d="M-1110.786,1256.25a13.479,13.479,0,0,1-13.464-13.464,13.48,13.48,0,0,1,13.464-13.465,13.48,13.48,0,0,1,13.465,13.465A13.479,13.479,0,0,1-1110.786,1256.25Zm0-24.433a10.981,10.981,0,0,0-10.968,10.969,10.981,10.981,0,0,0,10.968,10.969,10.982,10.982,0,0,0,10.969-10.969A10.982,10.982,0,0,0-1110.786,1231.817Z" transform="translate(1124.25 -1229.322)" fill="#12263f"/>
          </g>
        </g>
        <g id="Group_96585" data-name="Group 96585" transform="translate(0 71.972)">
          <g id="Group_96583" data-name="Group 96583" transform="translate(143.945)">
            <path id="Path_142366" data-name="Path 142366" d="M-1024.255,1169.721a13.479,13.479,0,0,1-13.464-13.464,13.48,13.48,0,0,1,13.464-13.464,13.479,13.479,0,0,1,13.464,13.464A13.479,13.479,0,0,1-1024.255,1169.721Zm0-24.433a10.981,10.981,0,0,0-10.969,10.969,10.981,10.981,0,0,0,10.969,10.969,10.982,10.982,0,0,0,10.969-10.969A10.981,10.981,0,0,0-1024.255,1145.288Z" transform="translate(1037.72 -1142.793)" fill="#12263f"/>
          </g>
          <g id="Group_96584" data-name="Group 96584">
            <path id="Path_142367" data-name="Path 142367" d="M-1197.316,1169.721a13.48,13.48,0,0,1-13.464-13.464,13.48,13.48,0,0,1,13.464-13.464,13.48,13.48,0,0,1,13.464,13.464A13.48,13.48,0,0,1-1197.316,1169.721Zm0-24.433a10.981,10.981,0,0,0-10.969,10.969,10.982,10.982,0,0,0,10.969,10.969,10.982,10.982,0,0,0,10.969-10.969A10.981,10.981,0,0,0-1197.316,1145.288Z" transform="translate(1210.78 -1142.793)" fill="#12263f"/>
          </g>
        </g>
        <g id="Group_96588" data-name="Group 96588" transform="translate(21.087 21.087)">
          <g id="Group_96586" data-name="Group 96586">
            <path id="Path_142368" data-name="Path 142368" d="M-1171.971,1108.53a13.418,13.418,0,0,1-9.52-3.938,13.479,13.479,0,0,1,0-19.041,13.48,13.48,0,0,1,19.041,0h0a13.479,13.479,0,0,1,0,19.041A13.422,13.422,0,0,1-1171.971,1108.53Zm0-24.421a10.933,10.933,0,0,0-7.755,3.207,10.982,10.982,0,0,0,0,15.512,10.981,10.981,0,0,0,15.512,0,10.983,10.983,0,0,0,0-15.512A10.934,10.934,0,0,0-1171.971,1084.109Z" transform="translate(1185.427 -1081.615)" fill="#12263f"/>
          </g>
          <g id="Group_96587" data-name="Group 96587" transform="translate(101.783 101.784)">
            <path id="Path_142369" data-name="Path 142369" d="M-1049.6,1230.9a13.423,13.423,0,0,1-9.521-3.937,13.48,13.48,0,0,1,0-19.041,13.481,13.481,0,0,1,19.042,0h0a13.48,13.48,0,0,1,0,19.041A13.422,13.422,0,0,1-1049.6,1230.9Zm0-24.421a10.941,10.941,0,0,0-7.757,3.207,10.983,10.983,0,0,0,0,15.513,10.982,10.982,0,0,0,15.513,0,10.984,10.984,0,0,0,0-15.513A10.94,10.94,0,0,0-1049.6,1206.481Z" transform="translate(1063.056 -1203.987)" fill="#12263f"/>
          </g>
        </g>
        <g id="Group_96591" data-name="Group 96591" transform="translate(21.087 21.087)">
          <g id="Group_96589" data-name="Group 96589" transform="translate(101.783)">
            <path id="Path_142370" data-name="Path 142370" d="M-1049.6,1108.53a13.422,13.422,0,0,1-9.521-3.938,13.48,13.48,0,0,1,0-19.041,13.481,13.481,0,0,1,19.042,0,13.48,13.48,0,0,1,0,19.041h0A13.422,13.422,0,0,1-1049.6,1108.53Zm0-24.421a10.932,10.932,0,0,0-7.757,3.207,10.982,10.982,0,0,0,0,15.512,10.984,10.984,0,0,0,15.513,0,10.982,10.982,0,0,0,0-15.512A10.934,10.934,0,0,0-1049.6,1084.109Zm8.638,19.6h0Z" transform="translate(1063.056 -1081.615)" fill="#12263f"/>
          </g>
          <g id="Group_96590" data-name="Group 96590" transform="translate(0 101.784)">
            <path id="Path_142371" data-name="Path 142371" d="M-1171.971,1230.9a13.418,13.418,0,0,1-9.52-3.937,13.479,13.479,0,0,1,0-19.041,13.479,13.479,0,0,1,19.041,0,13.479,13.479,0,0,1,0,19.041h0A13.422,13.422,0,0,1-1171.971,1230.9Zm0-24.421a10.935,10.935,0,0,0-7.756,3.207,10.982,10.982,0,0,0,0,15.512,10.982,10.982,0,0,0,15.512,0,10.983,10.983,0,0,0,0-15.512A10.941,10.941,0,0,0-1171.97,1206.481Zm8.638,19.6h0Z" transform="translate(1185.427 -1203.987)" fill="#12263f"/>
          </g>
        </g>
        <g id="Group_96592" data-name="Group 96592" transform="translate(157.409 85.436)">
          <path id="Path_142372" data-name="Path 142372" transform="translate(1021.532 -1158.98)" fill="#3f3679"/>
        </g>
        <g id="Group_96593" data-name="Group 96593" transform="translate(119.37 41.934)">
          <path id="Path_142373" data-name="Path 142373" d="M-1066.018,1116.248a1.243,1.243,0,0,1-.882-.366,1.247,1.247,0,0,1,0-1.764l7.072-7.072a1.246,1.246,0,0,1,1.764,0,1.246,1.246,0,0,1,0,1.764l-7.072,7.072A1.242,1.242,0,0,1-1066.018,1116.248Z" transform="translate(1067.265 -1106.679)" fill="#12263f"/>
        </g>
        <g id="Group_96594" data-name="Group 96594" transform="translate(41.935 119.369)">
          <path id="Path_142374" data-name="Path 142374" d="M-1159.115,1209.345a1.242,1.242,0,0,1-.882-.365,1.247,1.247,0,0,1,0-1.764l7.073-7.073a1.247,1.247,0,0,1,1.764,0,1.247,1.247,0,0,1,0,1.764l-7.073,7.073A1.244,1.244,0,0,1-1159.115,1209.345Z" transform="translate(1160.363 -1199.777)" fill="#12263f"/>
        </g>
        <g id="Group_96595" data-name="Group 96595" transform="translate(84.188 121.011)">
          <path id="Path_142375" data-name="Path 142375" d="M-1108.315,1227.179a1.248,1.248,0,0,1-1.248-1.248V1203a1.248,1.248,0,0,1,1.248-1.248,1.248,1.248,0,0,1,1.248,1.248v22.932A1.248,1.248,0,0,1-1108.315,1227.179Z" transform="translate(1109.563 -1201.751)" fill="#12263f"/>
        </g>
        <g id="Group_96596" data-name="Group 96596" transform="translate(119.37 119.37)">
          <path id="Path_142376" data-name="Path 142376" d="M-1058.945,1209.345a1.243,1.243,0,0,1-.883-.365l-7.072-7.072a1.247,1.247,0,0,1,0-1.764,1.247,1.247,0,0,1,1.764,0l7.072,7.072a1.247,1.247,0,0,1,0,1.764A1.241,1.241,0,0,1-1058.945,1209.345Z" transform="translate(1067.265 -1199.777)" fill="#12263f"/>
        </g>
        <g id="Group_96597" data-name="Group 96597" transform="translate(120.184 84.188)">
          <path id="Path_142377" data-name="Path 142377" d="M-1041.278,1159.975h-23.76a1.248,1.248,0,0,1-1.248-1.248,1.248,1.248,0,0,1,1.248-1.248h23.76a1.248,1.248,0,0,1,1.248,1.248A1.247,1.247,0,0,1-1041.278,1159.975Z" transform="translate(1066.286 -1157.48)" fill="#12263f"/>
        </g>
        <g id="Group_96598" data-name="Group 96598" transform="translate(84.188 24.433)">
          <path id="Path_142378" data-name="Path 142378" d="M-1108.315,1111.066a1.248,1.248,0,0,1-1.248-1.247v-22.933a1.248,1.248,0,0,1,1.248-1.247,1.248,1.248,0,0,1,1.248,1.247v22.933A1.248,1.248,0,0,1-1108.315,1111.066Z" transform="translate(1109.563 -1085.638)" fill="#12263f"/>
        </g>
        <g id="Group_96599" data-name="Group 96599" transform="translate(41.935 41.934)">
          <path id="Path_142379" data-name="Path 142379" d="M-1152.041,1116.249a1.247,1.247,0,0,1-.883-.366l-7.074-7.074a1.247,1.247,0,0,1,0-1.764,1.247,1.247,0,0,1,1.764,0l7.074,7.074a1.248,1.248,0,0,1,0,1.764A1.247,1.247,0,0,1-1152.041,1116.249Z" transform="translate(1160.363 -1106.679)" fill="#12263f"/>
        </g>
        <g id="Group_96600" data-name="Group 96600" transform="translate(24.433 84.188)">
          <path id="Path_142380" data-name="Path 142380" d="M-1156.4,1159.975h-23.76a1.248,1.248,0,0,1-1.248-1.248,1.248,1.248,0,0,1,1.248-1.248h23.76a1.248,1.248,0,0,1,1.248,1.248A1.247,1.247,0,0,1-1156.4,1159.975Z" transform="translate(1181.405 -1157.48)" fill="#12263f"/>
        </g>
      </g>
      <g id="Group_96607" data-name="Group 96607" transform="translate(-1228.243 1224.64)">
        <g id="Group_96604" data-name="Group 96604" transform="translate(0 9.128)">
          <g id="Group_96602" data-name="Group 96602">
            <path id="Path_142381" data-name="Path 142381" d="M-1212.021,1272.166H-1227a1.248,1.248,0,0,1-1.248-1.248,1.248,1.248,0,0,1,1.248-1.248h14.975a1.248,1.248,0,0,1,1.248,1.248A1.248,1.248,0,0,1-1212.021,1272.166Z" transform="translate(1228.243 -1269.671)" fill="#12263f"/>
          </g>
          <g id="Group_96603" data-name="Group 96603" transform="translate(182.453)">
            <path id="Path_142382" data-name="Path 142382" d="M-992.663,1272.166h-14.974a1.248,1.248,0,0,1-1.248-1.248,1.248,1.248,0,0,1,1.248-1.248h14.974a1.248,1.248,0,0,1,1.248,1.248A1.248,1.248,0,0,1-992.663,1272.166Z" transform="translate(1008.885 -1269.671)" fill="#12263f"/>
          </g>
        </g>
        <g id="Group_96605" data-name="Group 96605" transform="translate(23.457 9.128)">
          <path id="Path_142383" data-name="Path 142383" d="M-1048.28,1272.166h-150.514a1.247,1.247,0,0,1-1.248-1.248,1.248,1.248,0,0,1,1.248-1.248h150.514a1.248,1.248,0,0,1,1.248,1.248A1.247,1.247,0,0,1-1048.28,1272.166Z" transform="translate(1200.042 -1269.671)" fill="#12263f"/>
        </g>
        <g id="Group_96606" data-name="Group 96606">
          <path id="Path_142384" data-name="Path 142384" d="M-1029.568,1261.193H-1227a1.248,1.248,0,0,1-1.248-1.248A1.248,1.248,0,0,1-1227,1258.7h197.427a1.248,1.248,0,0,1,1.248,1.248A1.248,1.248,0,0,1-1029.568,1261.193Z" transform="translate(1228.243 -1258.697)" fill="#12263f"/>
        </g>
      </g>
    </g>
    <rect id="Rectangle_9154" data-name="Rectangle 9154" width="220" height="220" transform="translate(380 1695)" fill="none"/>
  </g>
</svg>
